<?xml version="1.0" encoding="UTF-8" standalone="no"?>
<!DOCTYPE svg PUBLIC "-//W3C//DTD SVG 1.1//EN" "http://www.w3.org/Graphics/SVG/1.1/DTD/svg11.dtd">
<svg xmlns="http://www.w3.org/2000/svg" version="1.1" viewBox="0 0 1448 1447">
<path fill="#fb3034" d="
  M 72.75 691.93
  C 80.80 427.03 248.86 194.73 495.68 101.41
  Q 496.59 101.06 496.14 101.28
  C 316.29 188.30 186.89 354.67 150.07 551.57
  C 106.18 786.28 194.84 1026.03 385.18 1171.79
  C 471.92 1238.21 574.15 1281.27 682.91 1294.28
  C 1048.52 1338.04 1363.47 1057.80 1377.25 693.50
  Q 1377.27 692.99 1377.31 693.50
  Q 1378.17 704.93 1377.91 721.44
  Q 1375.46 877.22 1304.47 1013.95
  C 1215.69 1184.96 1051.89 1310.74 863.42 1350.81
  C 671.03 1391.71 472.51 1345.82 318.59 1223.47
  C 156.96 1094.98 66.47 898.36 72.75 691.93
  Z"
/>
<path fill="#fb3034" d="
  M 950.31 158.24
  C 992.85 158.34 1035.67 167.27 1075.64 181.50
  C 1122.39 198.15 1164.52 226.82 1197.57 263.43
  C 1334.32 414.89 1383.11 626.27 1326.42 821.94
  C 1259.39 1053.26 1051.78 1225.65 811.54 1245.42
  C 727.14 1252.36 640.21 1244.28 559.56 1218.24
  Q 436.59 1178.53 347.36 1085.40
  C 347.24 1085.27 347.17 1085.00 347.28 1084.90
  A 0.39 0.22 31.0 0 1 347.65 1084.91
  Q 353.38 1087.73 359.26 1090.24
  C 419.26 1115.87 483.54 1133.30 548.71 1138.40
  C 591.73 1141.77 635.78 1138.01 676.42 1124.38
  C 731.44 1105.93 774.77 1068.72 803.62 1018.86
  C 835.79 963.27 851.83 899.78 840.98 836.75
  C 827.16 756.42 775.51 687.41 732.30 620.70
  C 687.16 551.00 650.46 477.22 669.96 391.75
  C 678.68 353.53 698.61 315.86 722.20 282.69
  C 777.75 204.57 852.42 157.99 950.31 158.24
  Z"
/>
</svg>
